# xmcd
#
# Track frame offsets: 
#        182
#        13312
#        32172
#        45047
#        57950
#        71667
#        86755
#        100587
#        115960
#        128892
#        140337
#        153642
#        164947
#        177685
#        190545
#        203785
#        215812
#
# Disc length: 3080 seconds
#
# Revision: 4
# Processed by: cddbd v1.5.2PL0 Copyright (c) Steve Scherf et al.
# Submitted via: ExactAudioCopyFreeDBPlugin 1.0
#
DISCID=fb0c0611
DTITLE=Waters, Muddy - Mannish boy - 16 greatest hits
DYEAR=1900
DGENRE=Blues
TTITLE0=Mannish boy
TTITLE1=I got my mojo working
TTITLE2=I just want to make love to you
TTITLE3=I'm your hoochie coochie man
TTITLE4=I'm ready
TTITLE5=Standing around crying
TTITLE6=I want you to love me
TTITLE7=Honey bee
TTITLE8=Forty days and forty nights
TTITLE9=Just a dream
TTITLE10=I feel so good
TTITLE11=Crawlin' kingsnake
TTITLE12=Appealing blues (Hello little girl)
TTITLE13=Lousiana blues
TTITLE14=She moves me
TTITLE15=Long distance call
TTITLE16=They call me Muddy Waters
EXTD=
EXTT0=
EXTT1=
EXTT2=
EXTT3=
EXTT4=
EXTT5=
EXTT6=
EXTT7=
EXTT8=
EXTT9=
EXTT10=
EXTT11=
EXTT12=
EXTT13=
EXTT14=
EXTT15=
EXTT16=
PLAYORDER=
